<svg version="1.1" id="Layer_1" xmlns="http://www.w3.org/2000/svg" xmlns:xlink="http://www.w3.org/1999/xlink" x="0px" y="0px"
	 width="100%" viewBox="0 0 979 594" enable-background="new 0 0 979 594" xml:space="preserve">

<path fill="#23201D" opacity="1.000000" stroke="none"
	d="
M358.966370,404.467194
	C354.418274,405.198975 349.870178,405.930725 345.172791,405.925110
	C345.349609,396.459076 345.675690,387.730438 346.001770,379.001801
	C345.596344,360.400848 345.095062,341.801392 344.810455,323.198608
	C344.474823,301.263519 340.214386,279.838348 336.489990,258.358002
	C332.294983,234.163696 327.413086,210.087296 323.327271,185.875671
	C320.634277,169.917770 317.795654,153.870712 316.866425,137.757217
	C315.665863,116.938843 316.159241,96.013939 316.221802,75.135796
	C316.247955,66.403954 317.088562,57.676407 317.461182,48.942741
	C317.593964,45.830288 319.249756,44.791294 322.119965,44.336945
	C339.738068,41.548019 357.338226,38.644215 374.936188,35.729439
	C407.183075,30.388346 439.660156,30.233675 472.166626,31.754898
	C486.187195,32.411022 500.196838,33.746815 514.148376,35.329514
	C535.722290,37.776913 556.133911,44.479118 576.170410,52.702991
	C592.767273,59.515099 607.514526,69.319862 621.708252,79.916679
	C627.390869,84.159302 631.660156,90.388290 636.249817,95.978256
	C642.046143,103.037834 648.515198,109.808403 652.919312,117.694763
	C663.062134,135.857544 674.071045,153.642212 680.217041,173.832672
	C687.206421,196.793503 694.999817,219.511032 701.877319,242.503754
	C704.567810,251.498734 705.848938,260.930511 707.536255,270.206238
	C709.367310,280.272369 711.220154,290.350525 712.520325,300.493042
	C713.929016,311.482208 714.746277,322.548492 715.748474,333.587769
	C716.134277,337.837189 716.318604,342.104889 716.641907,347.092987
	C712.246948,345.767120 708.544678,344.535217 704.780884,343.534271
	C686.492493,338.670502 668.133972,339.121063 649.709839,342.792755
	C646.477417,343.436951 643.119629,343.451782 638.959167,343.922028
	C620.396667,347.094727 602.694763,350.102661 584.992798,353.110596
	C584.538513,353.185516 584.084290,353.260406 582.964478,353.472656
	C578.457214,354.497772 574.615540,355.385529 570.773804,356.273315
	C561.821533,358.454803 552.870056,360.639648 543.916809,362.817017
	C524.934631,367.433289 505.940369,372.000397 486.972870,376.676117
	C474.779724,379.681885 462.656891,382.976654 450.443695,385.895691
	C440.969879,388.160004 431.428223,390.159485 421.875244,392.069214
	C406.523407,395.138184 391.138580,398.042236 375.765015,401.002167
	C371.083130,401.903564 366.392487,402.759521 361.076233,403.729919
	C359.953217,404.038086 359.459778,404.252625 358.966370,404.467194
M343.968750,120.118019
	C346.644989,126.304008 351.952759,129.145859 357.940552,131.144226
	C366.579346,134.027344 379.363342,129.349625 382.756134,122.044075
	C386.636932,113.687675 384.272156,103.867111 377.190125,98.929405
	C370.239166,94.083092 355.618927,94.633125 349.963074,99.264748
	C343.269012,104.746536 342.161713,111.516716 343.968750,120.118019
z"/>
<path fill="#23201D" opacity="1.000000" stroke="none"
	d="
M342.898041,405.899658
	C337.458496,407.430817 332.092010,409.332947 326.565277,410.421173
	C312.015991,413.286011 297.428864,415.992340 282.793854,418.375214
	C274.138977,419.784424 265.293976,420.049927 256.656738,421.539001
	C226.756348,426.693817 196.817978,431.701508 167.070694,437.648651
	C142.287247,442.603424 117.769974,448.880005 93.097122,454.402802
	C84.261368,456.380585 75.315323,457.865662 65.703972,459.713226
	C62.656651,448.920380 59.240864,438.409576 56.759163,427.682648
	C52.402763,408.852448 47.394741,390.050018 44.894478,370.943542
	C41.531399,345.243530 40.909698,319.215942 46.321400,293.601105
	C49.521496,278.454315 53.786438,263.521057 57.891811,248.579498
	C64.551140,224.342819 77.178490,202.832230 90.603889,182.023148
	C98.976639,169.045563 109.776520,157.552765 120.104630,145.942917
	C128.738495,136.237579 137.857224,126.870049 147.528259,118.209427
	C155.796524,110.805000 165.015076,104.422318 174.075058,97.954346
	C180.901733,93.080757 187.893585,88.327614 195.255768,84.340424
	C207.011276,77.973885 218.728485,71.485970 231.914581,68.121971
	C238.241226,66.507935 244.084915,63.086552 250.332764,61.053551
	C256.437103,59.067253 262.756256,57.716011 269.018707,56.246059
	C281.524994,53.310520 294.057007,50.484516 307.236908,47.462265
	C307.236908,50.936237 307.236938,54.038368 307.236908,57.140495
	C307.236633,77.015656 307.313080,96.891205 307.214905,116.765877
	C307.112274,137.538971 309.375305,158.021240 313.750366,178.331436
	C317.330750,194.952560 320.359894,211.691727 323.736969,228.357590
	C326.588531,242.430038 329.034546,256.616730 332.649689,270.495056
	C338.426056,292.670013 341.564789,315.180725 343.041107,337.967987
	C343.727753,348.566437 344.063629,359.189789 344.405426,369.806793
	C344.484253,372.256104 343.935150,374.725677 343.732178,378.087036
	C343.492218,387.958649 343.195129,396.929138 342.898041,405.899658
z"/>
<path fill="#23201D" opacity="1.000000" stroke="none"
	d="
M784.785645,436.311646
	C774.585327,441.060028 764.373840,445.784698 754.188721,450.565460
	C747.891418,453.521301 741.600098,456.493591 735.366333,459.580261
	C723.470703,465.470367 711.697815,471.613708 699.727966,477.347229
	C684.031616,484.865723 668.443115,492.699768 652.346497,499.266449
	C636.560791,505.706268 620.376587,511.332336 604.034607,516.198608
	C588.306458,520.882080 571.820374,521.371704 555.699402,519.014404
	C541.876709,516.993164 528.204346,513.386108 514.766846,509.451294
	C502.379242,505.823914 490.146271,501.400665 478.284790,496.304779
	C458.615753,487.854645 438.965302,479.234497 419.933594,469.465271
	C402.853912,460.698090 386.505127,450.474213 370.046997,440.539856
	C357.934418,433.228546 346.165619,425.347687 333.934784,417.523041
	C342.862091,415.664154 351.939117,413.758148 361.023102,411.885986
	C378.175537,408.350952 395.300262,404.670105 412.497772,401.369110
	C424.190247,399.124725 436.070404,397.821686 447.716461,395.381073
	C462.894501,392.200317 477.934021,388.352051 493.014709,384.714691
	C511.483124,380.260254 529.920959,375.678833 548.393860,371.243408
	C562.338623,367.895233 576.317810,364.690186 591.052124,361.391541
	C594.645630,360.032745 597.575439,357.378326 600.273865,357.595825
	C614.861145,358.771423 628.826477,354.952484 643.035034,353.146149
	C650.738464,352.333771 658.527466,351.994476 666.129089,350.619324
	C688.031738,346.656952 707.686157,352.795074 726.606079,363.057983
	C733.143738,366.604218 739.665955,370.309875 746.544250,373.074036
	C773.128784,383.757385 799.912781,393.944031 826.499084,404.622864
	C837.650757,409.102112 848.494812,414.347137 859.688354,419.337524
	C846.050903,421.251831 833.133362,423.065094 819.493408,425.056824
	C814.003723,426.492859 809.156799,427.511322 804.488220,429.065399
	C797.851990,431.274353 791.346802,433.877106 784.785645,436.311646
z"/>
<path fill="#23201D" opacity="1.000000" stroke="none"
	d="
M809.603394,529.111572
	C796.441711,525.575867 783.667664,522.174377 770.895203,518.767395
	C765.625732,517.361816 760.338196,516.018677 755.096375,514.516113
	C746.095154,511.935913 737.122009,509.257507 728.145996,506.590271
	C727.889343,506.514038 727.733459,506.098785 727.163025,505.375732
	C729.275574,504.076050 731.267944,502.684235 733.402466,501.563171
	C751.171753,492.230469 768.830383,482.672546 786.794128,473.728394
	C804.195374,465.064392 822.354248,458.327332 841.501038,454.444336
	C848.731934,452.977814 855.786255,450.518951 863.057617,449.400177
	C876.339905,447.356445 889.525818,449.125183 901.552551,454.807068
	C911.175049,459.353149 920.779602,464.820709 928.745789,471.767303
	C938.900757,480.622406 947.646851,491.205750 953.232056,503.846313
	C957.232483,512.899963 957.510803,522.867920 952.153809,530.501404
	C947.177673,537.592163 938.450745,541.472839 929.503052,543.791260
	C910.100403,548.818665 890.684814,547.811096 871.359741,544.119934
	C854.801392,540.957153 838.398621,536.963196 821.968933,533.155945
	C817.893188,532.211426 813.979736,530.566589 809.603394,529.111572
z"/>
<path fill="#23201D" opacity="1.000000" stroke="none"
	d="
M833.992676,430.055389
	C845.794739,428.863190 857.638367,426.410828 869.388428,426.797821
	C884.066528,427.281250 898.467346,430.561218 911.320679,438.723419
	C924.776978,447.268463 937.119812,457.043152 947.709961,469.000702
	C952.870483,474.827667 957.782288,485.538605 957.810669,494.439209
	C956.618469,491.742218 955.426270,489.045197 954.234009,486.348236
	C953.850159,485.479950 953.694458,484.353607 953.048157,483.782166
	C943.699707,475.516846 934.419312,467.165863 924.852112,459.158691
	C913.400696,449.574615 899.567932,444.912140 885.323486,441.700195
	C876.611938,439.735809 867.754639,439.908783 858.877441,442.363373
	C846.467834,445.794708 833.688416,447.934326 821.368225,451.630096
	C809.835083,455.089722 798.362671,459.144104 787.458923,464.216675
	C771.409851,471.682922 755.715149,479.967896 740.185547,488.480713
	C718.255188,500.502289 696.601746,513.029907 674.853638,525.382996
	C665.777039,530.538574 657.100830,536.547058 647.643799,540.852478
	C630.786194,548.526917 613.555664,554.940674 594.903442,557.795288
	C571.180542,561.425842 548.743591,557.194885 526.544373,550.035034
	C513.158630,545.717651 499.793274,541.096497 486.945343,535.419922
	C474.220886,529.797913 462.032013,522.906128 449.839478,516.153687
	C437.430420,509.281342 425.061279,502.278625 413.114349,494.644928
	C398.337677,485.203064 383.789276,475.364716 369.554047,465.125183
	C353.452759,453.543365 337.824585,441.304749 321.951294,429.404266
	C318.811829,427.050507 315.493805,424.934906 311.827423,422.413269
	C313.621887,421.692810 314.794983,421.112579 316.031219,420.744415
	C321.398712,419.145966 325.654114,419.031433 330.951965,423.264069
	C343.229187,433.072662 356.483002,441.730103 369.760101,450.196838
	C384.109436,459.347321 398.798462,467.991180 413.593597,476.409149
	C427.445190,484.290192 441.142029,492.760620 455.790802,498.842987
	C474.116882,506.452271 491.644684,515.885620 511.010284,521.345764
	C525.933838,525.553467 540.643921,530.319702 556.001831,532.729980
	C571.887329,535.222961 587.357605,534.293335 603.047546,529.961609
	C619.406494,525.445068 635.310425,519.799744 650.805481,513.182129
	C664.433716,507.361786 677.284668,499.734528 690.549561,493.045471
	C698.347046,489.113464 706.374512,485.633453 714.134583,481.632111
	C725.924133,475.553131 737.453308,468.962372 749.311096,463.024506
	C761.741943,456.799652 774.423096,451.073853 787.018616,445.180756
	C788.042236,444.701813 789.248962,444.614288 791.013062,444.014709
	C793.521729,442.657501 795.277222,441.258728 797.272400,440.664307
	C809.482300,437.026703 821.746521,433.571442 833.992676,430.055389
z"/>
</svg>
