<svg xmlns="http://www.w3.org/2000/svg" xml:space="preserve" viewBox="0 0 979 594">
  <path fill="var(--img-color, #F5F5F5)" d="m359 404-14 2 1-27-1-56c-1-22-5-43-9-65l-13-72-6-48-1-63 1-26c1-3 2-4 5-5l53-8a461 461 0 0 1 201 17c17 7 32 16 46 27 5 4 10 10 14 16 6 7 13 14 17 22 10 18 21 36 27 56l22 69c3 8 4 18 6 27l5 30 3 34 1 13-12-3c-19-5-37-5-55-1l-11 1-54 9h-2l-12 3-27 7-57 14-37 9-28 6-46 9-15 3h-2m-15-284c3 6 8 9 14 11 9 3 21-2 25-9 4-8 1-18-6-23s-21-4-27 0c-7 6-8 13-6 21z"/>
  <path fill="var(--img-color, #F5F5F5)" d="m343 406-16 4-44 8-26 4-90 16-74 16-27 6-9-32c-5-19-10-38-12-57-3-26-4-52 1-77l12-45c7-25 19-46 33-67 8-13 19-24 29-36l28-28 26-20 21-14c12-6 24-13 37-16 6-1 12-5 18-7l19-5 38-9v70c0 21 2 41 7 61l10 50c3 14 5 29 9 42 5 23 9 45 10 68l1 32v8l-1 28zm442 30-31 15-19 9-35 17c-16 8-32 16-48 22-15 7-32 12-48 17s-32 5-48 3a302 302 0 0 1-78-23c-19-8-39-17-58-27-17-8-33-19-50-28l-36-23 27-6 51-11 36-6 45-10 55-14 43-10c4-1 7-4 9-3 15 1 29-3 43-5l23-2c22-4 42 2 61 12l20 10 79 32 34 14-41 6-15 4-19 7zm25 93-39-10-16-4-27-8-1-2 6-3 54-28c17-9 35-16 55-20l21-5c13-2 27 0 39 6 9 4 19 10 27 17 10 9 19 19 24 32 4 9 5 19-1 27-5 7-14 10-22 13-20 5-39 4-59 0l-49-11-12-4z"/>
  <path fill="var(--img-color, #F5F5F5)" d="M834 430c12-1 24-4 35-3 15 0 29 4 42 12 14 8 26 18 37 30 5 6 10 17 10 25l-4-8-1-2-28-25a91 91 0 0 0-40-17c-8-2-17-2-26 0l-38 10c-11 3-23 7-34 12l-47 24-65 37c-9 6-18 12-27 16a147 147 0 0 1-121 9c-14-4-27-9-40-15-13-5-25-12-37-19a678 678 0 0 1-80-51c-17-11-32-24-48-36l-10-7 4-1c5-2 10-2 15 2a445 445 0 0 0 83 53c13 8 27 17 42 23 18 7 36 17 55 22l45 12c16 2 31 1 47-3 16-5 32-10 48-17l40-20 23-11 35-19 38-18 4-1 6-3 37-11z"/>
</svg>
